<svg xmlns="http://www.w3.org/2000/svg" viewBox="0 0 13.68 9.95"><defs><style>.cls-1{fill:#636363;}</style></defs><title>Email Icon</title><g id="Layer_2" data-name="Layer 2"><g id="Layer_1-2" data-name="Layer 1"><path class="cls-1" d="M1.86,10h10a1.87,1.87,0,0,0,1.87-1.87V1.86A1.87,1.87,0,0,0,11.81,0h-10A1.86,1.86,0,0,0,0,1.86V8.08A1.87,1.87,0,0,0,1.86,10ZM12.43,7.82,9.58,5l2.85-2.85ZM5.52,6.4a1.88,1.88,0,0,0,2.64,0l.54-.55L11.56,8.7H2.12L5,5.85Zm1.76-.88a.63.63,0,0,1-.88,0L2.12,1.24h9.43ZM4.09,5,1.24,7.82V2.12Z"/></g></g></svg>