<svg xmlns="http://www.w3.org/2000/svg" viewBox="0 0 197.36 133.66"><defs><style>.cls-1{fill:#b5121b;}.cls-2{fill:gray;}</style></defs><title>LSP Logo Art</title><g id="Layer_2" data-name="Layer 2"><g id="Layer_1-2" data-name="Layer 1"><path d="M197.36,89.2H103.27v44.46h24.49v-36h53.5c3,0,4.5,2.52,4.5,7.57v6.19c0,5.61-1.51,8.41-4.5,8.41h-47v13.83h63.09Z"/><path d="M179.18,109.2a4,4,0,0,0-1.56-3H134.27v5.66h43.47A3.2,3.2,0,0,0,179.18,109.2Z"/><polygon class="cls-1" points="28.2 52.34 35.95 52.34 36.02 66.33 35.95 80.17 94.09 80.17 94.09 0 0 0 0 133.66 94.09 133.66 94.09 89.28 28.2 89.28 28.2 52.34"/><path class="cls-2" d="M120.66,57.5V48.39H190.9a5.12,5.12,0,0,0,1.72-1.22,12.24,12.24,0,0,0,1.06-1.3c0-2.09-.87-3.19-2.6-3.29H127.15q-6.48-.15-6.49-8.18V28.13q0-7.72,6.59-7.72h70.11V0H103.27V80h94.09V57.37a9.42,9.42,0,0,1-1.45.13Z"/><path class="cls-2" d="M132.06,29.12a1.86,1.86,0,0,0-1.48.81,3.12,3.12,0,0,0-.65,2.06,2.29,2.29,0,0,0,.65,1.83,2.13,2.13,0,0,0,1.48.58h63.85a11,11,0,0,1,1.45.11V29.12Z"/></g></g></svg>