<svg xmlns="http://www.w3.org/2000/svg" viewBox="0 0 8 14.88"><defs><style>.cls-1{fill:#636363;}</style></defs><title>Mobil Icon</title><g id="Layer_2" data-name="Layer 2"><g id="Layer_1-2" data-name="Layer 1"><path class="cls-1" d="M6.93,0H1.08A1.08,1.08,0,0,0,0,1.08V13.8a1.08,1.08,0,0,0,1.08,1.08H6.92A1.08,1.08,0,0,0,8,13.8V1.07A1.07,1.07,0,0,0,6.93,0ZM3.32.64H4.76c0,.06.09.1.09.15s0,.1-.09,0H3.32c0,.09-.1,0-.1,0S3.27.7,3.32.64ZM1.88.47A.15.15,0,0,1,2,.62a.14.14,0,0,1-.15.15A.15.15,0,0,1,1.73.62.15.15,0,0,1,1.88.47ZM1.2.38a.24.24,0,0,1,.24.24A.23.23,0,0,1,1.2.86.24.24,0,0,1,1,.62.24.24,0,0,1,1.2.38Zm3.19,14H3.72A.42.42,0,0,1,3.29,14a.41.41,0,0,1,.4-.44h.67a.41.41,0,0,1,.42.36A.39.39,0,0,1,4.39,14.4Zm3.13-1.28h-7V1.76h7Z"/></g></g></svg>