<svg xmlns="http://www.w3.org/2000/svg" viewBox="0 0 12.7 12.7"><defs><style>.cls-1{fill:#636363;}</style></defs><title>Phone Icon</title><g id="Layer_2" data-name="Layer 2"><g id="Layer_1-2" data-name="Layer 1"><path class="cls-1" d="M9,7.28,8,8.21A9.61,9.61,0,0,1,6,6.64a10.15,10.15,0,0,1-1.59-2l.93-.93a.65.65,0,0,0,0-.9L2.78.19a.64.64,0,0,0-.9,0L.63,1.43A2.13,2.13,0,0,0,.21,3.87a18.65,18.65,0,0,0,3.61,5,18.57,18.57,0,0,0,5,3.6,2,2,0,0,0,.92.22,2.15,2.15,0,0,0,1.52-.63l1.25-1.25a.65.65,0,0,0,0-.9L9.88,7.28A.64.64,0,0,0,9,7.28Zm1.56,4.07a1.11,1.11,0,0,1-1.28.22A17.62,17.62,0,0,1,4.53,8.16,17.83,17.83,0,0,1,1.12,3.43a1.13,1.13,0,0,1,.22-1.29l.86-.85a.16.16,0,0,1,.24,0l1.8,1.8a.18.18,0,0,1,0,.24L3.19,4.39l.14.32a9.83,9.83,0,0,0,2,2.64A9.54,9.54,0,0,0,7.92,9.29l.31.14,1.08-1a.16.16,0,0,1,.24,0l1.86,1.87a.16.16,0,0,1,0,.24Z"/></g></g></svg>