<svg xmlns="http://www.w3.org/2000/svg" viewBox="0 0 15.58 15.58"><defs><style>.cls-1{fill:#636363;}</style></defs><title>Web Icon</title><g id="Layer_2" data-name="Layer 2"><g id="Layer_1-2" data-name="Layer 1"><path class="cls-1" d="M7.68,0a7.79,7.79,0,1,0,7.9,7.68A7.8,7.8,0,0,0,7.68,0Zm.19,14c-.35,0-1-.91-1.48-2.71l2.89,0C8.89,13,8.23,14,7.87,14ZM6.1,9.61C6,9.07,6,8.47,6,7.81A17.06,17.06,0,0,1,6.05,6L9.48,6c.06.55.1,1.15.11,1.8a17.16,17.16,0,0,1-.06,1.81ZM1.63,7.87a6.31,6.31,0,0,1,.24-1.8L4.42,6c0,.6-.07,1.2-.06,1.81a17.93,17.93,0,0,0,.11,1.8l-2.55,0a6.28,6.28,0,0,1-.29-1.8ZM7.7,1.63c.36,0,1,.91,1.49,2.71l-2.9,0C6.68,2.57,7.35,1.63,7.7,1.63Zm3.41,4.31,2.55,0A6.22,6.22,0,0,1,14,7.71a6.31,6.31,0,0,1-.24,1.8l-2.55,0c.05-.6.07-1.2.06-1.81s-.05-1.21-.11-1.8Zm1.75-1.65-2,0a11.68,11.68,0,0,0-.71-2.23,6.3,6.3,0,0,1,2.72,2.2ZM5.29,2.16A10.54,10.54,0,0,0,4.64,4.4l-2,0A6.19,6.19,0,0,1,5.29,2.16ZM2.72,11.29l2,0a10.72,10.72,0,0,0,.71,2.22,6.15,6.15,0,0,1-2.72-2.19Zm7.57,2.13a10.54,10.54,0,0,0,.65-2.24l2,0a6.19,6.19,0,0,1-2.66,2.27Z"/></g></g></svg>